<?xml version="1.0" encoding="UTF-8"?>
<svg width="203px" height="57px" viewBox="0 0 203 57" version="1.1" xmlns="http://www.w3.org/2000/svg" xmlns:xlink="http://www.w3.org/1999/xlink">
    <!-- Generator: Sketch 53.2 (72643) - https://sketchapp.com -->
    <title>Logo appliances</title>
    <desc>Created with Sketch.</desc>
    <defs>
        <polygon id="path-1" points="0 0.0408447945 55.9599562 0.0408447945 55.9599562 57 0 57"></polygon>
        <polygon id="path-3" points="0 57 203 57 203 0 0 0"></polygon>
    </defs>
    <g id="Symbols" stroke="none" stroke-width="1" fill="none" fill-rule="evenodd">
        <g id="Header---Sign-In" transform="translate(-248.000000, -62.000000)">
            <g fill="#0A1E41" id="yellow">
                <g transform="translate(0.000000, 46.000000)">
                    <rect id="Yellow-BG" x="0" y="0" width="1920" height="90"></rect>
                </g>
            </g>
            <g id="Logo-appliances" transform="translate(248.000000, 62.000000)">
                <g id="Group-3">
                    <mask id="mask-2" fill="white">
                        <use xlink:href="#path-1"></use>
                    </mask>
                    <g id="Clip-2"></g>
                    <path d="M21.6015014,37.9793421 C20.3866082,39.2520818 18.635189,40.0525804 16.7413918,40.0525804 C12.4520219,40.0525804 9.95050959,36.7421297 9.91491507,33.1042023 L9.91491507,33.0680503 C9.91491507,29.3576626 12.6306849,26.1564489 16.7413918,26.1564489 C18.635189,26.1564489 20.3147288,26.8838626 21.5303123,28.1210749 C22.7451288,29.3213544 23.495989,31.030964 23.495989,32.9955119 C23.5671781,34.9601379 22.8526027,36.7058996 21.6015014,37.9793421 L21.6015014,37.9793421 Z M23.2817315,0.0410009589 L23.2817315,22.9547667 L23.2817315,26.4469927 C22.4953534,24.8830845 20.0649534,22.6279927 16.0980055,22.6279927 C10.5582247,22.6279927 6.19774247,26.9200147 6.19774247,33.0680503 C6.19774247,38.7798407 10.0579068,43.5818174 16.1691945,43.5818174 C20.1724274,43.5818174 22.3523616,41.5803366 23.4248,39.5434064 L23.4248,42.9994023 L26.9982137,42.9994023 L26.9982137,1.58976123 L54.4382137,1.58976123 L54.4382137,55.4510914 L1.52174247,55.4510914 L1.52174247,1.58976123 L17.0162521,1.58976123 L17.0162521,0.0408447945 L0,0.0408447945 L0,57.0000078 L55.9599562,57.0000078 L55.9599562,0.0408447945 L23.2817315,0.0410009589 Z" id="Fill-1" fill="#B3A458" mask="url(#mask-2)"></path>
                </g>
                <path d="M45.411763,36.52664 C44.3962356,38.786623 42.1781545,40.4637683 39.0561805,40.4637683 C34.0926802,40.4637683 31.94878,36.52664 31.9113264,33.5733242 L31.9113264,33.5370143 C31.9113264,29.8179023 34.6941185,26.5370925 38.9812732,26.5370925 C42.2530618,26.5370925 44.5468575,28.3230112 45.5247698,30.6200085 C45.9763933,31.5318271 46.1643882,32.5526539 46.1269345,33.5733242 C46.0886736,34.5941511 45.8633058,35.6148996 45.411763,36.52664 L45.411763,36.52664 Z M50,43.4170058 L50,23.5837768 L46.0886736,23.5837768 L46.0886736,27.0836985 C45.1488608,25.1882239 42.5540635,23 38.4922766,23 C32.5508641,23 28,27.4482069 28,33.5007825 C28,39.0422797 31.9113264,44 38.4922766,44 C41.7266116,44 44.6598642,42.6148996 46.0886736,39.953394 L46.0886736,43.4170058 L50,43.4170058 Z" id="Fill-4" fill="#B3A458"></path>
                <path d="M73.7835842,40.5227647 C73.8079657,42.7432187 75.4446253,45.4207526 79.0610332,45.4207526 C81.3822817,45.4207526 83.092483,44.161997 83.8008974,42.4228014 C84.0942699,41.827645 84.2407179,41.1407602 84.2407179,40.4771609 C84.2650201,39.7903505 84.1185721,39.1039864 83.8251995,38.5087557 C83.092483,36.8151639 81.3331216,35.5564082 79.0119525,35.5564082 C75.9822896,35.5564082 73.7835842,37.7535767 73.7835842,40.5 L73.7835842,40.5227647 Z M86,46.656818 L84.1921137,46.656818 L84.1921137,44.1163931 C83.1659453,45.9700076 81.1623714,47 78.8168209,47 C74.5406822,47 72,43.8876299 72,40.5 C72,36.8839788 74.8096732,34 78.8168209,34 C81.6265735,34 83.5566851,35.5336435 84.1921137,36.9295827 L84.1921137,34.343182 L86,34.343182 L86,46.656818 Z" id="Fill-6" fill="#FEFEFE"></path>
                <path d="M102.185258,40.7291128 C102.185258,38.3276083 100.444711,35.6168729 96.8894227,35.6168729 C95.4184062,35.6168729 94.1192128,36.1874157 93.1627891,37.1150309 C92.2556171,38.042105 91.6916929,39.3261741 91.6916929,40.7764906 C91.6916929,42.2035432 92.2556171,43.4872259 93.2115627,44.4147638 C94.1435996,45.3181104 95.4676579,45.865003 96.9387541,45.865003 C99.9052536,45.865003 102.185258,43.6775099 102.185258,40.7528403 L102.185258,40.7291128 Z M90,34.356454 L91.7161594,34.356454 L91.7161594,37.0198116 C92.7950748,35.1651996 94.7075238,34 97.2326705,34 C101.670665,34 104,37.4952124 104,40.8006046 C104,44.3669223 101.327417,47.5056807 97.2326705,47.5056807 C94.3150243,47.5056807 92.4270418,45.865003 91.8142643,44.5336333 L91.8142643,47.1490721 L91.8142643,52 L90,52 L90,34.356454 Z" id="Fill-8" fill="#FEFEFE"></path>
                <path d="M118.185258,40.7291128 C118.185258,38.3276083 116.444711,35.6168729 112.889423,35.6168729 C111.418327,35.6168729 110.119213,36.1874157 109.162709,37.1150309 C108.255617,38.042105 107.691693,39.3261741 107.691693,40.7764906 C107.691693,42.2035432 108.255617,43.4872259 109.211563,44.4147638 C110.1436,45.3181104 111.467658,45.865003 112.938674,45.865003 C115.905174,45.865003 118.185258,43.6775099 118.185258,40.7528403 L118.185258,40.7291128 Z M106,34.356454 L107.71608,34.356454 L107.71608,37.0198116 C108.795075,35.1651996 110.707444,34 113.232591,34 C117.670665,34 120,37.4952124 120,40.8006046 C120,44.3669223 117.327417,47.5056807 113.232591,47.5056807 C110.314945,47.5056807 108.426962,45.865003 107.814264,44.5336333 L107.814264,47.1490721 L107.814264,52 L106,52 L106,34.356454 Z" id="Fill-10" fill="#FEFEFE"></path>
                <mask id="mask-4" fill="white">
                    <use xlink:href="#path-3"></use>
                </mask>
                <g id="Clip-13"></g>
                <polygon id="Fill-12" fill="#FEFEFE" mask="url(#mask-4)" points="123 47 125 47 125 29 123 29"></polygon>
                <path d="M134.783584,40.5227647 C134.807966,42.7432187 136.444625,45.4207526 140.061033,45.4207526 C142.382361,45.4207526 144.092483,44.161997 144.800897,42.4228014 C145.09427,41.827645 145.240718,41.1407602 145.240718,40.4771609 C145.265099,39.7903505 145.118572,39.1039864 144.8252,38.5087557 C144.092483,36.8151639 142.333201,35.5564082 140.011953,35.5564082 C136.98229,35.5564082 134.783584,37.7535767 134.783584,40.5 L134.783584,40.5227647 Z M147,46.656818 L145.192114,46.656818 L145.192114,44.1163931 C144.165945,45.9700076 142.162451,47 139.816821,47 C135.540682,47 133,43.8876299 133,40.5 C133,36.8839788 135.809673,34 139.816821,34 C142.626573,34 144.556685,35.5336435 145.192114,36.9295827 L145.192114,34.343182 L147,34.343182 L147,46.656818 Z" id="Fill-14" fill="#FEFEFE" mask="url(#mask-4)"></path>
                <path d="M150,34.3540053 L151.69686,34.3540053 C151.69686,35.0593535 151.69686,35.7642433 151.672669,36.6105542 C152.424333,34.965302 154.194082,33.9547257 156.521335,34.0015604 C160.56956,34.0483952 162,36.7279849 162,39.8073126 L162,47 L160.230251,47 L160.230251,40.1598339 C160.230251,37.4334095 158.969781,35.5765987 156.036169,35.623357 C153.345416,35.6468126 151.793862,37.2218508 151.793862,39.8541474 L151.793862,47 L150,47 L150,34.3540053 Z" id="Fill-15" fill="#FEFEFE" mask="url(#mask-4)"></path>
                <path d="M178,42.4911699 C177.184873,45.1004097 174.73866,47 171.733353,47 C167.493088,47 165,43.7960502 165,40.5 C165,36.8607678 167.819245,34 171.61643,34 C174.435676,34 177.138074,35.6479879 178,38.6004097 L176.229727,38.6004097 C175.437318,36.5175857 173.457281,35.5564082 171.686478,35.5564082 C170.218659,35.5564082 169.193844,35.9911699 168.145402,36.9523474 C167.306648,37.7535767 166.723928,39.0812217 166.723928,40.5 C166.723928,43.406818 168.960983,45.4207526 171.663306,45.4207526 C174.06272,45.3979879 175.670179,43.9787632 176.206479,42.4911699 L178,42.4911699 Z" id="Fill-16" fill="#FEFEFE" mask="url(#mask-4)"></path>
                <path d="M191.291924,39.6304022 C191.176952,37.4787632 189.084058,35.3731745 186.531426,35.4419894 C183.863747,35.4419894 181.885825,37.3871835 181.724655,39.6304022 L191.291924,39.6304022 Z M181.70178,40.9808119 C181.793802,44.0704173 184.438532,45.5580106 186.531426,45.5352458 C188.4402,45.5352458 189.981258,44.5967587 190.785838,42.994821 L192.556765,42.994821 C191.982055,44.3223916 191.107804,45.3292474 190.049957,45.9932187 C189.015359,46.656818 187.796267,47 186.531426,47 C182.230741,47 180,43.5900517 180,40.5227647 C180,36.906818 182.805451,34 186.508551,34 C188.25608,34 189.866286,34.6179955 191.039105,35.739642 C192.464743,37.1128165 193.154873,39.0124067 192.970754,40.9808119 L181.70178,40.9808119 Z" id="Fill-17" fill="#FEFEFE" mask="url(#mask-4)"></path>
                <path d="M201.052925,37.4331594 C201.052925,36.1283535 200.213169,35.3959392 199.020635,35.3959392 C197.717236,35.3959392 196.921926,36.3115128 196.965942,37.3871091 C197.010318,38.5548059 197.871616,39.0351715 199.307424,39.4699332 C201.008478,39.9507451 202.90836,40.4543961 202.996824,43.0864007 C203.085215,45.3523841 201.317741,47 199.064652,47 C197.142726,47 195.022044,45.7411699 195,43.1552156 L196.612663,43.1552156 C196.678652,44.8488074 197.893588,45.6039864 199.086624,45.6039864 C200.456443,45.6039864 201.406133,44.5512292 201.384161,43.2923992 C201.340144,41.8963856 200.456443,41.323994 198.40175,40.7059985 C196.701126,40.1795827 195.375252,39.4699332 195.331235,37.524739 C195.331235,35.3043595 197.03229,34 199.042608,34 C200.699287,34 202.555153,34.9383384 202.665588,37.4331594 L201.052925,37.4331594 Z" id="Fill-18" fill="#FEFEFE" mask="url(#mask-4)"></path>
                <polygon id="Fill-19" fill="#FEFEFE" mask="url(#mask-4)" points="128 47 130 47 130 34 128 34"></polygon>
                <path d="M128,30 L128,32 L130,32 L130,30.4536082 C129.277136,30.4023103 128.610762,30.2449385 128,30" id="Fill-20" fill="#FEFEFE" mask="url(#mask-4)"></path>
                <path d="M74.5018458,16.1425439 C74.5258502,18.5235266 76.2095157,20.6902162 79.0965256,20.6902162 C80.3711792,20.6902162 81.55005,20.1662854 82.367683,19.3332588 C83.2097894,18.4997678 83.690658,17.3571809 83.6428057,16.0714224 C83.6428057,14.7856639 83.1374636,13.6667584 82.3197525,12.8810945 C81.5015722,12.0713622 80.3711792,11.595336 79.0965256,11.595336 C76.329772,11.595336 74.5018458,13.6904397 74.5018458,16.1187851 L74.5018458,16.1425439 Z M86,22.6188539 L83.5948752,22.6188539 L83.5948752,20.3568972 C82.873025,21.6900958 81.4057894,23 78.7113616,23 C74.5980977,23 72,19.8571895 72,16.1187851 C72,12.0950436 74.9348621,9.28593909 78.6635093,9.28593909 C81.3334637,9.28593909 82.9692769,10.761845 83.4986233,11.7854833 L83.4986233,9.49984522 L83.4986233,5 L86,5 L86,22.6188539 Z" id="Fill-21" fill="#FEFEFE" mask="url(#mask-4)"></path>
                <path d="M100.436541,15.8330766 C100.314114,14.0829877 98.5507762,12.1145327 96.0281174,12.162883 C93.4323046,12.162883 91.7425984,14.0345585 91.6201709,15.8330766 L100.436541,15.8330766 Z M91.5713751,17.8019266 C91.6938025,20.4755681 94.04484,21.836485 96.0529531,21.836485 C97.8407286,21.836485 99.162834,20.9856947 99.8976377,19.6005237 L102.542724,19.6005237 C101.90583,21.0587731 100.975445,22.1525786 99.8484438,22.8814663 C98.7219199,23.6350031 97.3998942,24 96.0529531,24 C91.6938025,24 89,20.5239184 89,17.0241356 C89,13.2325134 91.9873738,10 96.0281174,10 C97.9382408,10 99.6772204,10.7046336 100.95053,11.9441218 C102.517809,13.5238789 103.17914,15.5900613 102.958723,17.8019266 L91.5713751,17.8019266 Z" id="Fill-22" fill="#FEFEFE" mask="url(#mask-4)"></path>
                <path d="M111.267234,13.8399725 C111.267234,12.8192453 110.670614,12.0414543 109.453643,12.0657085 C108.282865,12.0657085 107.640127,12.8923237 107.662962,13.7668941 C107.708632,14.8123494 108.604197,15.2982219 109.935939,15.6873938 C111.841392,16.2463447 113.930644,16.8296286 113.999223,19.6735231 C114.045416,22.2498321 112.025191,24 109.54558,24 C107.571025,24 105.114697,22.808862 105,19.7950307 L107.364391,19.7950307 C107.456328,21.3989628 108.673299,21.9338175 109.568415,21.9338175 C110.716358,21.9338175 111.611923,21.0829482 111.611923,19.9648885 C111.58864,18.6523219 110.647331,18.2147996 108.420472,17.4370087 C106.675909,16.8780579 105.298049,16.0034084 105.275214,14.0103043 C105.275214,11.5065996 107.203949,10 109.476478,10 C111.198654,10 113.448348,10.8992196 113.632147,13.8399725 L111.267234,13.8399725 Z" id="Fill-23" fill="#FEFEFE" mask="url(#mask-4)"></path>
                <path d="M117,23 L120,23 L120,9.76759406 L117,9.76759406 L117,23 Z M117,7.67562439 L120,7.67562439 L120,5 L117,5 L117,7.67562439 Z" id="Fill-24" fill="#FEFEFE" mask="url(#mask-4)"></path>
                <path d="M125.506129,17.2176715 C125.506129,19.7743816 127.265205,22.0048228 130.036225,22.0048228 C131.361465,22.0048228 132.469904,21.4788007 133.26497,20.6263467 C134.036068,19.7993915 134.518308,18.6215647 134.542275,17.293027 C134.542275,16.2154841 134.205013,14.9873118 133.481848,14.0599911 C132.759232,13.1077421 131.626356,12.4560189 130.036225,12.4560189 C127.554063,12.4560189 125.506129,14.3859342 125.506129,17.1926616 L125.506129,17.2176715 Z M137,22.4559781 C137,24.8370488 136.421813,26.3656656 135.457803,27.5185639 C134.252947,28.9723954 132.205013,30 129.93973,30 C126.228745,30 124.060427,27.7441416 123.433758,25.4633548 L126.32524,25.4633548 C126.614568,26.0652212 127.120775,26.616742 127.770942,27.0424801 C128.566477,27.5939194 129.458038,27.7695588 130.036225,27.7695588 C132.22898,27.7695588 134.493793,26.0902311 134.493793,23.0323458 L134.493793,21.6289414 C133.722773,23.1576396 132.132563,24.4362391 129.771333,24.4362391 C125.84347,24.4362391 123,21.3280897 123,17.2680986 C123,13.0074582 125.963932,10 129.771333,10 C131.963697,10 133.771177,11.2028366 134.493793,12.706525 L134.493793,10.4008098 L137,10.4008098 L137,22.4559781 Z" id="Fill-25" fill="#FEFEFE" mask="url(#mask-4)"></path>
                <path d="M141,10.37156 L143.342394,10.37156 L143.342394,12.3213388 C143.964064,11.0214611 145.422087,9.97677503 147.741094,10.0003927 C151.900403,10.0465717 153,12.9717682 153,15.5946131 L153,23 L150.490009,23 L150.490009,16.1517036 C150.490009,13.8768609 149.581319,12.2519949 147.047552,12.2751599 C144.60951,12.2982494 143.486137,13.7839748 143.486137,15.9663086 L143.486137,23 L141,23 L141,10.37156 Z" id="Fill-26" fill="#FEFEFE" mask="url(#mask-4)"></path>
                <path d="M167.436539,15.8330766 C167.314111,14.0829877 165.550774,12.1145327 163.028116,12.162883 C160.432304,12.162883 158.742598,14.0345585 158.62017,15.8330766 L167.436539,15.8330766 Z M158.571374,17.8019266 C158.693802,20.4755681 161.044839,21.836485 163.053031,21.836485 C164.840727,21.836485 166.162832,20.9856947 166.897635,19.6005237 L169.542721,19.6005237 C168.905827,21.0587731 167.975442,22.1525786 166.848441,22.8814663 C165.721918,23.6350031 164.399892,24 163.053031,24 C158.693802,24 156,20.5239184 156,17.0241356 C156,13.2325134 158.987373,10 163.028116,10 C164.938318,10 166.677218,10.7046336 167.950527,11.9441218 C169.517885,13.5238789 170.179137,15.5900613 169.958719,17.8019266 L158.571374,17.8019266 Z" id="Fill-27" fill="#FEFEFE" mask="url(#mask-4)"></path>
                <path d="M172,10.3711785 L174.638192,10.3711785 L174.638192,12.2281273 C175.472959,10.742357 177.007813,10.0230902 179,10 L179,12.4139806 L178.811326,12.4139806 C176.173134,12.4139806 174.800175,13.6676418 174.800175,16.1750396 L174.800175,23 L172,23 L172,10.3711785 Z" id="Fill-28" fill="#FEFEFE" mask="url(#mask-4)"></path>
            </g>
        </g>
    </g>
</svg>