<svg xmlns="http://www.w3.org/2000/svg" width="100%" height="100%" viewBox="0 0 324.5 112.3">
  <path d="M16.8 18.3h13.7c1.9 0 3.5.7 4.7 2 1.3 1.3 2 2.9 2 4.8v14.4c0 .7-.3 1.3-.8 1.8s-1.1.8-1.8.8v.1c.7 0 1.3.3 1.8.8s.8 1.1.8 1.8v14.5c0 1.9-.7 3.5-2 4.7a6.5 6.5 0 0 1-4.7 2H16.8V18.3zm6.8 6.8v13.8h4.3c.8 0 1.3-.3 1.9-.8.5-.5.8-1.1.8-1.9v-8.5c0-.8-.3-1.3-.8-1.9-.5-.5-1.1-.8-1.9-.8l-4.3.1zm0 20.5v13.7h4.3c.8 0 1.3-.3 1.9-.8.5-.5.8-1.1.8-1.9V48c0-.8-.3-1.3-.8-1.8s-1.1-.8-1.9-.8l-4.3.2zm47.6-27.3l13.7.1c1.9 0 3.5.7 4.7 2 1.3 1.3 2 2.9 2 4.7v13.7c0 2.6-1.1 4.6-3.4 5.9l3.4 21.4h-6.7l-3.4-20.5H78v20.5h-6.7l-.1-47.8zm6.8 6.8V39h4.3c.8 0 1.3-.3 1.9-.8.5-.6.8-1.1.8-1.8v-8.5c0-.8-.3-1.3-.8-1.9-.5-.6-1.1-.8-1.9-.8l-4.3-.1zm54.1-6.9h6.7L149 66h-6.7l-2-10.2-9.7-.1-2 10.3h-6.7l10.2-47.8zm3.3 13.7L132 49.1h6.9l-3.5-17.2zm44.3-13.7h6.8l6.8 23.9V18.2h6.8V66h-6.8l-6.8-23.9V66h-6.8V18.2zm54.2 0h13.7c1.9 0 3.5.7 4.7 2 1.3 1.3 2 2.9 2 4.8v34.3c0 1.9-.7 3.5-2 4.7a6.5 6.5 0 0 1-4.7 2h-13.7V18.2zm6.7 6.8v34.3h4.3c.8 0 1.3-.3 1.9-.8.5-.5.8-1.1.8-1.9v-29c0-.8-.3-1.3-.8-1.9-.5-.5-1.1-.8-1.9-.8h-4.3zm53.2 27.4v3.4c0 .9.4 1.8 1 2.4.7.7 1.5.9 2.5.9s1.8-.3 2.4-.9c.7-.7.9-1.4.9-2.4V49c0-.9-.3-1.8-.9-2.4-.7-.6-1.4-.9-2.4-.9a10 10 0 0 1-7.7-3.4c-1.7-2-2.6-4.3-2.6-6.8v-6.8c0-2.8 1-5.2 3-7.2s4.5-3 7.2-3c2.8 0 5.2 1 7.2 3s3 4.5 3 7.2V32h-6.9v-3.4c0-.9-.3-1.8-.9-2.5-.7-.7-1.4-1-2.4-1s-1.8.4-2.5 1c-.7.7-1 1.5-1 2.5v6.8a4 4 0 0 0 1 2.5c.7.7 1.5 1 2.5 1 3 0 5.6 1.1 7.7 3.4 1.7 2 2.6 4.3 2.6 6.8V56c0 2.8-1 5.2-3 7.2s-4.5 3-7.2 3c-2.8 0-5.2-1-7.2-3s-3-4.5-3-7.2v-3.4h6.6v-.2zM48.7 92.6V74h8v2.7h-5.3V82h4v2.7h-4V90h5.3v2.7l-8-.1zM75.1 74h2.7l2 5.6 2-5.6h2.7l-3.3 9.3 3.3 9.3h-2.7l-2-5.6-2 5.6h-2.7l3.3-9.3-3.3-9.3zm29.6 1.2c.8-.8 1.7-1.1 2.8-1.1s2 .4 2.8 1.1c.8.8 1.1 1.7 1.1 2.8v1.3h-2.7V78c0-.4-.1-.7-.4-.9-.3-.3-.6-.4-.9-.4s-.7.1-.9.4c-.3.3-.4.6-.4.9v10.6c0 .4.1.7.4.9.3.3.6.4.9.4s.7-.1.9-.4c.3-.3.4-.6.4-.9v-1.3h2.7v1.3c0 1.1-.4 2-1.1 2.8-.8.8-1.7 1.1-2.8 1.1s-2-.4-2.8-1.1a3.7 3.7 0 0 1-1.1-2.8V78c0-1.1.4-2 1.1-2.8zm27 17.4V74h2.7v16h5.3v2.7l-8-.1zM159.5 74h2.7v14.6c0 .4.1.7.4.9.3.3.6.4.9.4.4 0 .7-.1.9-.4.3-.3.4-.6.4-.9V74h2.7v14.6c0 1.1-.4 2-1.1 2.8-.8.8-1.7 1.1-2.8 1.1-1.1 0-2-.4-2.8-1.1a3.7 3.7 0 0 1-1.1-2.8V74zm30.7 13.3v1.3c0 .4.1.7.4.9.3.3.6.4.9.4.4 0 .7-.1.9-.4.3-.3.4-.6.4-.9V86c0-.4-.1-.7-.4-.9-.3-.3-.6-.4-.9-.4-1.2 0-2.2-.5-2.9-1.3-.7-.8-1-1.6-1-2.7V78c0-1.1.4-2 1.1-2.8.8-.8 1.7-1.1 2.8-1.1 1.1 0 2 .4 2.8 1.1.8.8 1.1 1.7 1.1 2.8v1.3h-2.7V78c0-.4-.1-.7-.4-.9-.3-.3-.6-.4-.9-.4-.4 0-.7.1-.9.4-.3.3-.4.6-.4.9v2.7c0 .4.1.7.4.9.3.3.6.4.9.4a4 4 0 0 1 3.9 4v2.7c0 1.1-.4 2-1.1 2.8-.8.8-1.7 1.1-2.8 1.1-1.1 0-2-.4-2.8-1.1a3.7 3.7 0 0 1-1.1-2.8v-1.3h2.7zm28.1 5.3h-2.7V74h2.7v18.6zM240.7 74l2 10.9 2-10.9h2.7l-3.3 18.6h-2.7L238.1 74h2.6zM267 92.6V74h8v2.7h-5.3V82h4v2.7h-4V90h5.3v2.7l-8-.1z" fill="#010202"/>
  <path fill="none" d="M0-.7h324.5v112.3H0z"/>
</svg>
