<?xml version="1.0" encoding="UTF-8" standalone="no"?>
<svg
   xmlns:dc="http://purl.org/dc/elements/1.1/"
   xmlns:cc="http://creativecommons.org/ns#"
   xmlns:rdf="http://www.w3.org/1999/02/22-rdf-syntax-ns#"
   xmlns:svg="http://www.w3.org/2000/svg"
   xmlns="http://www.w3.org/2000/svg"
   viewBox="0 0 170.66667 140.90668"
   height="140.90668"
   width="170.66667"
   xml:space="preserve"
   id="svg2"
   version="1.1"><metadata
     id="metadata8"><rdf:RDF><cc:Work
         rdf:about=""><dc:format>image/svg+xml</dc:format><dc:type
           rdf:resource="http://purl.org/dc/dcmitype/StillImage" /></cc:Work></rdf:RDF></metadata><defs
     id="defs6" /><g
     transform="matrix(1.3333333,0,0,-1.3333333,0,140.90667)"
     id="g10"><g
       transform="scale(0.1)"
       id="g12"><path
         id="path14"
         style="fill:#4252ab;fill-opacity:1;fill-rule:nonzero;stroke:none"
         d="M 136.898,463.891 C 337.32,315.668 494.922,165.031 605.32,16.1719 l 2.493,-3.0313 c 1.757,-1.9492 3.707,-3.71091 5.808,-5.28122 17.742,-13.14844 42.785,-9.42969 55.942,8.31252 C 776.66,160.57 932.344,307.434 1145.34,464.934 1221.3,520.266 1268.98,600.992 1280,690.668 v 79.848 C 1260.17,933.898 1119.08,1056.77 942.48,1056.77 811.941,1056.77 698.098,985.492 641.223,875.453 584.359,985.492 470.52,1056.77 339.98,1056.77 152.52,1056.77 0,909.488 0,728.449 0,623.688 49.9805,527.211 136.898,463.891" /></g></g></svg>