<?xml version="1.0" encoding="UTF-8" standalone="no"?>
<svg
   xmlns:dc="http://purl.org/dc/elements/1.1/"
   xmlns:cc="http://creativecommons.org/ns#"
   xmlns:rdf="http://www.w3.org/1999/02/22-rdf-syntax-ns#"
   xmlns:svg="http://www.w3.org/2000/svg"
   xmlns="http://www.w3.org/2000/svg"
   viewBox="0 0 170.66667 140.90668"
   height="140.90668"
   width="170.66667"
   xml:space="preserve"
   id="svg2"
   version="1.1"><metadata
     id="metadata8"><rdf:RDF><cc:Work
         rdf:about=""><dc:format>image/svg+xml</dc:format><dc:type
           rdf:resource="http://purl.org/dc/dcmitype/StillImage" /></cc:Work></rdf:RDF></metadata><defs
     id="defs6" /><g
     transform="matrix(1.3333333,0,0,-1.3333333,0,140.90667)"
     id="g10"><g
       transform="scale(0.1)"
       id="g12"><path
         id="path14"
         style="fill:#4252ab;fill-opacity:1;fill-rule:nonzero;stroke:none"
         d="m 339.98,976.777 c 140.02,0 228.618,-84.285 253.836,-204.98 l 6.664,-31.805 h 81.473 l 6.66,31.805 C 713.84,892.492 800,976.777 942.48,976.777 c 145.8,0 260,-108 260,-245.898 0,-79.645 -38.14,-152.902 -104.52,-201.465 C 885.984,374.324 733.328,230.105 640,96.7773 546.664,230.105 394.746,373.984 184.238,528.398 118.199,576.84 80,649.555 80,728.457 c 0,139.238 114.199,248.32 259.98,248.32 z M 136.898,463.887 C 337.32,315.672 494.922,165.027 605.32,16.1719 l 2.493,-3.043 c 1.757,-1.9375 3.707,-3.69921 5.808,-5.25781 17.742,-13.15234 42.785,-9.4414 55.942,8.30081 C 776.66,160.574 932.344,307.43 1145.34,464.93 1221.3,520.273 1268.98,600.996 1280,690.668 v 78.863 C 1260.61,933.383 1119.42,1056.77 942.48,1056.77 811.941,1056.77 698.105,985.492 641.223,875.449 584.359,985.492 470.523,1056.77 339.98,1056.77 152.52,1056.77 0,909.492 0,728.449 0,623.691 49.9805,527.207 136.898,463.887" /></g></g></svg>