<?xml version="1.0" encoding="UTF-8" standalone="no"?>
<svg
   xmlns:dc="http://purl.org/dc/elements/1.1/"
   xmlns:cc="http://creativecommons.org/ns#"
   xmlns:rdf="http://www.w3.org/1999/02/22-rdf-syntax-ns#"
   xmlns:svg="http://www.w3.org/2000/svg"
   xmlns="http://www.w3.org/2000/svg"
   viewBox="0 0 162.26666 162.26666"
   height="162.26666"
   width="162.26666"
   xml:space="preserve"
   id="svg2"
   version="1.1"><metadata
     id="metadata8"><rdf:RDF><cc:Work
         rdf:about=""><dc:format>image/svg+xml</dc:format><dc:type
           rdf:resource="http://purl.org/dc/dcmitype/StillImage" /></cc:Work></rdf:RDF></metadata><defs
     id="defs6" /><g
     transform="matrix(1.3333333,0,0,-1.3333333,0,162.26667)"
     id="g10"><g
       transform="scale(0.1)"
       id="g12"><path
         id="path14"
         style="fill:#f25379;fill-opacity:1;fill-rule:nonzero;stroke:none"
         d="M 1205.21,921.059 921.055,1205.21 c -15.696,15.69 -41.133,15.69 -56.828,0 L 608.492,949.469 352.754,1205.21 c -15.695,15.69 -41.137,15.69 -56.832,0 L 11.7734,921.059 c -15.69528,-15.696 -15.69528,-41.137 0,-56.832 L 267.508,608.488 11.7734,352.754 c -15.69528,-15.695 -15.69528,-41.145 0,-56.828 L 295.922,11.7695 c 15.695,-15.69919 41.137,-15.69919 56.832,0 L 608.492,267.508 864.227,11.7695 c 15.695,-15.69919 41.132,-15.69919 56.828,0 L 1205.21,295.926 c 15.7,15.683 15.7,41.133 0,56.828 L 949.473,608.488 1205.21,864.227 c 15.7,15.695 15.7,41.136 0,56.832" /></g></g></svg>