<?xml version="1.0" encoding="UTF-8" standalone="no"?>
<svg
   xmlns:dc="http://purl.org/dc/elements/1.1/"
   xmlns:cc="http://creativecommons.org/ns#"
   xmlns:rdf="http://www.w3.org/1999/02/22-rdf-syntax-ns#"
   xmlns:svg="http://www.w3.org/2000/svg"
   xmlns="http://www.w3.org/2000/svg"
   viewBox="0 0 167.97333 157.58667"
   height="157.58667"
   width="167.97333"
   xml:space="preserve"
   id="svg2"
   version="1.1"><metadata
     id="metadata8"><rdf:RDF><cc:Work
         rdf:about=""><dc:format>image/svg+xml</dc:format><dc:type
           rdf:resource="http://purl.org/dc/dcmitype/StillImage" /></cc:Work></rdf:RDF></metadata><defs
     id="defs6" /><g
     transform="matrix(1.3333333,0,0,-1.3333333,0,157.58667)"
     id="g10"><g
       transform="scale(0.1)"
       id="g12"><path
         id="path14"
         style="fill:#965392;fill-opacity:1;fill-rule:nonzero;stroke:none"
         d="m 40,350.922 h 480 c 22.09,0 40,-17.91 40,-40 V 39.9883 c 0,-9.7891 3.594,-19.2383 10.102,-26.5664 14.679,-16.51174 39.961,-18.00003 56.468,-3.3203 l 619.8,550.9294 c 1.17,1.035 2.28,2.149 3.32,3.321 14.68,16.511 13.19,41.789 -3.32,56.468 l -619.8,550.93 c -7.316,6.51 -16.773,10.1 -26.57,10.1 -22.09,0 -40,-17.91 -40,-40 V 870.922 c 0,-22.09 -17.91,-40 -40,-40 H 40 c -22.0898,0 -40,-17.906 -40,-40 v -400 c 0,-22.09 17.9102,-40 40,-40" /></g></g></svg>