<svg width="100%" height="100%" viewBox="0 0 530 176" xmlns="http://www.w3.org/2000/svg"><defs><linearGradient x1="37.308%" y1="41.858%" x2="125.9%" y2="97.945%" id="a"><stop stop-color="#9DCC45" offset="0%"/><stop stop-color="#76B042" offset="100%"/></linearGradient><linearGradient x1="-.01%" y1="49.904%" x2="99.988%" y2="49.904%" id="b"><stop stop-color="#F9D727" offset="0%"/><stop stop-color="#F68725" offset="100%"/></linearGradient></defs><g fill="none"><path d="M41.1 175.6c-3.3 0-9.9-.5-16.9-3.3-.8-.3-1.6-.7-2.4-1.1-2.7-1.3-5.1-2.8-7.4-4.5-.8-.6-1.6-1.3-2.4-2-1.6-1.5-3.1-3.1-4.4-4.9-3.5-4.6-5.7-9.9-6.6-15.6-.2-1.4-.4-2.8-.4-4.3-.2-4.3.3-8.7 1.6-13.1l27.1-96.4.3-.7C33.2 19.2 42.8 6.4 58.7 2.1c1.1-.3 2.3-.6 3.5-.8 2.4-.4 5-.7 7.5-.7h418.8C505.3.6 519 14.3 519 31.1v28.2h10.9l-13.3 26.6c5.6 3.2 9.3 9.2 9.3 16 0 5.6-2.6 10.9-6.9 14.4v29.1c0 16.8-13.7 30.5-30.5 30.5H41.1v-.3z" fill="#FFF"/><path d="M507.3 89.7c-6.7 0-12.1 5.4-12.1 12.1 0 4.7 2.7 8.7 6.6 10.7v32.7c0 7.4-6 13.4-13.4 13.4H173.5c2.2-1.9 40.5-56.6 42.1-61.3.4-1.1.7-2.2.9-3.4.4-1.9.7-4 .7-6.3 0-8.5-3.8-15.3-6.4-18.9-.4-.5-2.5-3.4-2.9-4-1.6-2.2-32.7-45.3-34.7-47.3h315.2c7.4 0 13.4 6 13.4 13.4v34.5h-6.6l12.1 24.4 12.1-24.2h-6.9V31c0-13.3-10.8-24.1-24.1-24.1H69.6c-2.2 0-4.3.2-6.3.6-1 .2-2 .4-3 .7C47.7 11.6 39 21.7 35.6 31.7l-.2.6-27 96.2c-1.1 3.8-1.5 7.5-1.3 11.1.1 1.2.2 2.4.4 3.5.8 4.7 2.6 9 5.4 12.8 1.1 1.5 2.3 2.9 3.6 4 .6.6 1.3 1.2 2 1.7 2 1.6 4.1 2.8 6.2 3.8l2.1.9c6.2 2.5 12 2.9 14.5 2.9h447.3c13.3 0 24.1-10.8 24.1-24.1v-32.5c4.1-1.9 6.9-6.1 6.9-10.9-.2-6.6-5.6-12-12.3-12zm0 19.9c-4.3 0-7.8-3.5-7.8-7.8s3.5-7.8 7.8-7.8 7.8 3.5 7.8 7.8-3.5 7.8-7.8 7.8z" fill="url(#a)"/><g transform="translate(16 17)"><path d="M237.7 123.5c4.5 0 9.3-2.2 12.6-5.6l-4.5-4.8c-2.1 2.2-5.1 3.6-7.7 3.6-4.8 0-8.5-3.9-8.5-9 0-5 3.7-8.8 8.5-8.8 2.7 0 5.7 1.5 7.7 4l4.5-5.3c-3-3.1-7.7-5.1-12.3-5.1-9.3 0-16.3 6.6-16.3 15.4s6.8 15.6 16 15.6zm34.3 0c9.4 0 16.5-6.7 16.5-15.6 0-8.8-7-15.4-16.5-15.4-9.4 0-16.4 6.6-16.4 15.4 0 8.9 7.1 15.6 16.4 15.6zm.1-24.6c4.7 0 8.4 3.9 8.4 9s-3.7 9.1-8.4 9.1-8.6-4-8.6-9.1 3.9-9 8.6-9zm32.1 5.5l14 18.7h6.9V92.7h-7.2v18.8l-14.1-18.8H297v30.4h7.2zm38.6 0l14 18.7h6.8V92.7h-7.2v18.8l-14-18.8h-6.9v30.4h7.3zm55.6 12.6h-16.6v-6.1h14.5v-6.1h-14.5v-6h16.1v-6.1h-23.8v30.4h24.3zm23.4 6.5c4.5 0 9.3-2.2 12.6-5.6l-4.5-4.8c-2.1 2.2-5.1 3.6-7.7 3.6-4.8 0-8.5-3.9-8.5-9 0-5 3.7-8.8 8.5-8.8 2.7 0 5.7 1.5 7.7 4l4.5-5.3c-3-3.1-7.7-5.1-12.3-5.1-9.3 0-16.3 6.6-16.3 15.4-.1 8.8 6.8 15.6 16 15.6zm26.8-.4h7.7V98.9h9.2v-6.3h-26v6.3h9.1zM255.7 49.3c.5-2.2.4-4-.1-5.6-.6-1.6-2-2.4-4.3-2.4-1.6 0-3 .4-4.2 1.2-1.2.8-2.2 1.8-3 3.1-.9 1.3-1.6 2.8-2.2 4.6-.6 1.8-1.1 3.7-1.6 5.7-.7 3-1 5.5-1 7.4 0 1.9.2 3.4.7 4.5.5 1.1 1.1 1.9 1.9 2.3.8.4 1.8.6 2.9.6 1.5 0 2.7-.3 3.7-1 1-.6 1.8-1.4 2.4-2.4.6-1 1.1-2 1.4-3.1.3-1.1.6-2.1.8-3h17.5c-.6 3-1.7 5.6-3.4 8-1.6 2.4-3.6 4.4-6 6-2.4 1.7-5.1 2.9-8.2 3.8-3.1.9-6.4 1.3-9.9 1.3-3.7 0-7-.5-10-1.5s-5.4-2.5-7.3-4.5c-1.9-2-3.2-4.6-3.8-7.7-.6-3.1-.5-6.7.3-10.9 1-4.6 2.5-8.4 4.7-11.5 2.1-3.1 4.6-5.7 7.4-7.6 2.8-1.9 5.9-3.3 9.1-4.1 3.3-.8 6.5-1.2 9.8-1.2 1.2 0 2.6.1 4.2.2 1.6.2 3.2.5 4.8.9 1.6.5 3.1 1.1 4.6 2 1.5.9 2.7 2 3.8 3.5.7 1 1.3 2.1 1.7 3.1.4 1 .6 2.1.7 3 .1 1 .1 1.9 0 2.7-.1.8-.2 1.6-.2 2.3h-17.2v.3zm45.2 30.1c0-.9.1-1.8.2-2.9.1-1 .3-2.3.6-3.8-.7.8-1.5 1.6-2.4 2.5-1 .9-2.1 1.7-3.4 2.4-1.3.7-2.9 1.4-4.7 1.8-1.8.5-3.9.7-6.3.7-2.8 0-5.2-.4-7.1-1.1-1.9-.7-3.4-1.8-4.5-3-1.1-1.3-1.7-2.8-2-4.6-.2-1.8-.2-3.6.3-5.7.7-3.1 2-5.8 3.8-8 1.9-2.2 4.3-3.9 7.3-5.3 3-1.3 6.5-2.2 10.6-2.7 4-.5 8.5-.6 13.4-.5l.6-3.6c.2-1.2.1-2.2-.1-3.1-.2-.9-.7-1.6-1.3-2.1-.7-.5-1.7-.8-3-.8-1.6 0-3.2.5-4.7 1.5s-2.5 2.8-3 5.5h-16.6c.1-.6.3-1.2.5-1.9s.5-1.5.9-2.4c.4-.8.9-1.7 1.6-2.6.7-.9 1.5-1.8 2.6-2.8 2.2-1.8 5.1-3.3 8.7-4.3 3.6-1 7.5-1.5 11.8-1.5 1 0 2.3.1 3.8.2s3 .4 4.6.7c1.6.4 3.1.9 4.6 1.6 1.5.7 2.7 1.6 3.7 2.8 1.2 1.4 1.9 3.2 2.1 5.3.2 2.1 0 4.4-.6 6.9l-4.6 21.6c-.2.9-.3 1.6-.4 2.2-.1.6-.2 1.2-.2 1.8-.1.6-.1 1.3-.1 2s-.1 1.7-.1 2.9h-16.6v.3zm4-21.9c-1.8 0-3.6 0-5.4.1-1.8.1-3.4.4-4.8.8s-2.7 1.1-3.6 2c-1 .9-1.7 2.2-2 3.9-.4 1.7-.2 3.2.6 4.4.8 1.2 2.2 1.8 4.3 1.8.9 0 2.1-.3 3.6-.8 1.5-.6 2.9-1.8 4.1-3.6 1-1.5 1.8-3 2.3-4.7.5-1.6.8-2.9.9-3.9zm59.5-24.3l-2.3 11.1h-11.2l-3.4 16.1c-.3 1.4-.5 2.6-.6 3.7-.1 1 0 1.9.2 2.6.3.7.8 1.2 1.7 1.5.8.3 2.1.5 3.7.5h1.9c.6 0 1.4-.1 2.4-.2l-2.3 10.9c-1.2.2-2.7.4-4.4.6-1.7.2-4.1.3-7 .3-3.4 0-6.2-.3-8.2-.9-2-.6-3.5-1.4-4.5-2.6-1-1.1-1.5-2.6-1.6-4.2-.1-1.7.2-3.6.6-5.9l4.7-22.2h-8.8l2.3-11.1h9l1.6-7.2 18.1-6.6-3 13.8h11.1v-.2zm29.8 16.1c.5-2.2.4-4-.1-5.6-.6-1.6-2-2.4-4.3-2.4-1.6 0-3 .4-4.2 1.2-1.2.8-2.2 1.8-3 3.1-.9 1.3-1.6 2.8-2.2 4.6-.6 1.8-1.1 3.7-1.6 5.7-.7 3-1 5.5-1 7.4 0 1.9.2 3.4.7 4.5.5 1.1 1.1 1.9 1.9 2.3.8.4 1.8.6 2.9.6 1.5 0 2.7-.3 3.7-1 1-.6 1.8-1.4 2.4-2.4.6-1 1.1-2 1.4-3.1.3-1.1.6-2.1.8-3h17.5c-.6 3-1.7 5.6-3.4 8-1.6 2.4-3.6 4.4-6 6-2.4 1.7-5.1 2.9-8.2 3.8-3.1.9-6.4 1.3-9.9 1.3-3.7 0-7-.5-10-1.5s-5.4-2.5-7.3-4.5c-1.9-2-3.2-4.6-3.8-7.7-.6-3.1-.5-6.7.3-10.9 1-4.6 2.5-8.4 4.7-11.5 2.1-3.1 4.6-5.7 7.4-7.6 2.8-1.9 5.9-3.3 9.1-4.1 3.3-.8 6.5-1.2 9.8-1.2 1.2 0 2.6.1 4.2.2 1.6.2 3.2.5 4.8.9 1.6.5 3.1 1.1 4.6 2 1.5.9 2.7 2 3.8 3.5.7 1 1.3 2.1 1.7 3.1.4 1 .6 2.1.7 3 .1 1 .1 1.9 0 2.7-.1.8-.2 1.6-.2 2.3h-17.2v.3zM423 12.7h17.5l-5.4 25.4c.6-.4 1.3-1 2.2-1.7.9-.7 2-1.4 3.4-2 1.3-.6 2.8-1.2 4.5-1.7 1.7-.5 3.6-.7 5.7-.7 2.3 0 4.4.3 6.5 1 2.1.7 3.9 1.9 5.4 3.7.9 1 1.6 2.2 2 3.3.4 1.2.6 2.4.6 3.7 0 1.3-.1 2.7-.4 4.1-.2 1.4-.6 3-.9 4.6l-5.7 27h-17.3l5.3-24.9c.2-1 .4-2.1.6-3.4.2-1.3.2-2.5 0-3.7-.2-1.2-.7-2.2-1.5-3-.8-.8-2.1-1.2-3.9-1.2-1.4 0-2.6.2-3.6.7-1 .5-1.8 1.1-2.5 1.8s-1.2 1.4-1.7 2.2c-.4.7-.7 1.3-.9 1.8-.5 1-.9 2.3-1.2 3.8-.3 1.5-.7 3.2-1.2 5.2l-4.4 21h-17.4l14.3-67z" fill="#235C89"/><path d="M24.7 142.3c-2.4 0-13.8-.7-20.3-9.3-2.7-3.6-5.4-9.8-2.8-18.8l26.9-95.9.1-.3c2.3-6.7 10.1-18 24.6-18H129c4.8 0 16.9 1.2 24.6 12.2 5.6 7.9 29 40.5 31.6 44.2 1.7 2.1 5.6 7.6 5.6 14.4 0 6.6-3 10.9-5.9 15l-32.2 45.7c-3.3 5.2-11.3 10.9-23.8 10.9H24.7v-.1z" fill="url(#b)"/><path d="M129 131.1H24.7s-16.2-.3-12.4-13.9c3.8-13.6 26.9-95.6 26.9-95.6s3.6-10.5 14-10.5h74.7s10.7-1 16.6 7.4c5.9 8.4 31.9 44.6 31.9 44.6s3.3 3.7 3.3 7.6c0 3.2-1.5 5.2-4.1 8.9-2.6 3.7-32.1 45.6-32.1 45.6s-3.5 5.9-14.5 5.9z" fill="#FFF"/><path d="M104 60.4c1.7-7.9 0-14.5-8.2-14.5-11.7 0-16.9 11.8-20 26.7-4.7 22 .3 27 8.3 27 10.8 0 13.8-10.8 15.1-17.2h32.1c-4.4 21.5-24.5 35.1-50.2 35.1-27 0-44.6-14.4-38.1-44.9 7.1-33.4 33-44.8 56.8-44.8 9.1 0 24.2 1.5 31.7 12.2 5.6 7.8 4.6 15.5 3.9 20.4H104z" fill="#1F5B88"/><circle fill="#1F5B88" cx="156.5" cy="72.7" r="12.1"/></g></g></svg>
