<svg id="Layer_1" xmlns="http://www.w3.org/2000/svg" height="100%" width="100%" viewBox="0 0 324.5 112.3">
  <style>
    .st1{fill:#88b09e}
  </style>
  <path fill="none" d="M0-.7h324.5v112.3H0z"/>
  <path class="st1" d="M167.9 13c.3-.1.2-.5-.2-.4-.2.1 0 .5.2.4m-.4 1.7c.6-.3.3-.9-.3-.6-.3.1 0 .7.3.6m-6.9-7.3c.3-.1.2-.5-.2-.4-.2 0-.1.5.2.4m-5.3 8.4c.6-.2.1-1.3-.4-1-.6.3-.1 1.2.4 1m6-7.7c.3-.1-.1-.5-.5-.4-.5.1.1.5.5.4m.3-5.7l-28.2 28.2 28.2 28.2 28.2-28.2-28.2-28.2zm9.4 15.5c1.1-.6 1-.9 1.1-1.5.4-1.1 1.8.4 1.2 1.3-.2.3-.2.5-.1.6 1.3.4.5 2.2-1.1 1.4-.4-.2-.6-.6-1.1-.6-.7.1-.4-1 0-1.2m5.7 15.1c-.2.9-.9 1.3-.7-.4-.2-5.5-2.2-8.7-6.7-11.9-.5-.4-.1-1.7.9-1 5.7 4.4 7 8.8 6.5 13.3m-21.2-20.2c1 1.4 1.2 1.8 1.8 1.4.5-.3-1.2-1.4.6-4.7 1-1.8 1.8-1.4 1.9-2.3 0-.5.3-1.8 2-.7a9.3 9.3 0 0 1 3 2.9c.5.9.9 2.6.1 3.2-.5.4-.3 1.1.4.9 1.2-.3 1.7-2.3 3.3-1.6 1.6.7 1.8 3.2.4 5.8-1.2 1.9-4.7 5.3-6.4 5-1.2-.2-.3-2.1.7-2.4.8-.2 2.9-2.7 3.5-4.1.4-.9-.2-1.1-.5-.4-.4.6-1.6 2.1-2.5 2.7-.6.3-1.1 0-.9-.8a12 12 0 0 0-.4-5.7l-.4-1.3c-.1-.4-.4-1.1-.7-1.4-.5-.5-1-.3-1.1.5l.1 1.6c.5 7.5-1.8 8.2-3.5 5.8-1-1.6-1.5-.1-.5 1 .3.3.3.9 2.1 1.7 1 .4 1 3.1-1.4 2.1-1.8-1.1-2.8-3-3.6-5.6-1.3-3.7.8-5.4 2-3.6M167 34.9c1.5-.6 2.5 1.4 1 1.9-1.2.6-2.3-1.1-1-1.9m-12.6-13.7c-.8.5-1.8 1.6-2.4 2.9-.3.7-1.7.1-1.2-.8a9 9 0 0 1 2.7-3.1c.8-.7 1.5.6.9 1m-5.5-4.3c1.7-.9 3.4.1 4.3 1.8.4.9-.7 1.4-1.2.6-1.2-2.3-3.5-1.6-3.3.1.1 1 1.2.5 1.5 1.6.2 1.1-1.3 1.7-2.3-.2-1-1.7-.2-3.4 1-3.9M143 37.6c-1-1.1.4-2.7 1.5-3.8.5-.5.1-1.1-.6-.5-2.5 2.1-5.6-.8-6.1-1.7-.6-1.1-.9-.3-1.2-.8-.1-.3.1-.5.3-.8 4.1-5.4 6.2-4.3 7-3.2.4.6 1.2.3.9-.4-1-1.9.2-2.2.5-1.7.4.6.9.6 1.1.1.1-.5-.3-1-1.2-.7-.5.1-.9-.3.1-.8.9-.3 4.8-.1 8 4.6 1.3 1.9-.6 3.4-2.3.4-.9-1.5-1.7-2.3-2.4-2.5-.3-.1-.8.4-.3.6a4 4 0 0 1 1.7 2.2c.1.4-.3.6-.5.6-1.2-.2-3.9-.1-4.4-.2-.5-.1-2.4.1-2.3 1.1.1.8.7 1.3 1.4 1.4 1.3.1 5.5-.3 4.9 1.8-.4 1.4-1.8 2.2-2.7 2.7-.3.2-.3.8.2.7 2.1-.1 2.9-1.8 3.8-3.2 1-1.6 3.6-.3 2.1 2.1-1.9 2.6-7 4.5-9.5 2m11.3.7c-.9.2-1.2-1.1-.5-1.3 3.4-.8 5.2.8 6.4 4 .3.8-1 1.4-1.4.3-.7-2.4-2-3.6-4.5-3m3.3 3.3c-1 .8-1.7 2.3-1.7 3.1-.1.7-1.4.8-1.4-.4a5 5 0 0 1 2.2-3.8c.8-.5 1.4.8.9 1.1m-3.1-1.3c.7.4.2 1.5-.7 1a6.4 6.4 0 0 1-2.3-2.1c-.6-.9.1-1.9 1-1 .5.8 1.6 1.8 2 2.1m-6.4 1.7c-1.1.9-2.6-1.1-1.6-1.8 1.5-1.1 2.8.8 1.6 1.8m2-1.6c.5-.9 1.4 0 1.2.8-1 3.5 3 5.7 6.6 5.5 1.2-.1 1.5 1.1.4 1.4-1.7.4-10.2-1.5-8.2-7.7m5.3 9.2c-.4-.8.7-1.7 1.4-.2 3.1 5.7 10.1 3.5 8.9-.6-.2-.8-1.1-1.6-2.1-1.4-1.2.3-1.5-1.5 0-1.4 1.4 0 2.4.8 3 1.7 3.3 5.2-6.7 10.6-11.2 1.9m5.8-3.2c.1.4.8 2.9 2.4 3.1.7.1 1 1.5-.1 1.4-1.4-.1-3.3-2-3.8-4.5-.3-1.5 1.4-1.3 1.5 0m7.9 3c-.8.6-1.6-.7-.9-1.1.3-.2.5-1.1.4-1.7-.3-1.3 1.4-1.4 1.4 0 0 .6-.1 2-.9 2.8m1.9-7.1l-2.5 1.1a12.7 12.7 0 0 1-10.1.4c-1-.3-.5-1.6.2-1.3 3.9 1.5 7.4.5 10.3-.9 1.4-.6.7-1 .2-1-2.5.3-3.3-.7-5.1-.7-.6 0-1.9-.2-2.5-.1-1.1.1-1.2-1.2-.3-1.4.5-.1 1.2-.2 1.6-.1.5.1.6-.2-.2-.8-4.2-3-8.4-6.4-18.4-7-.3 0-1.3-.1-.9-.5.2-.2 1-.4 1-.4h1.2c5.5-.2 10.6 1.6 13.3 3.6.3.2.5.1.2-.2-2.5-3-3.7-6.1-4.9-10-.3-.8.7-1.4 1.2-.4 1.1 3 1.7 5.2 3.5 7.9.2.3.4.2.3-.2-1.8-6 3.5-11.6 2.1-18.9 0 0 .3-1 .6.5.6 3.2-.1 7.6-.6 9.3-1.7 5.1-1.4 8.7.2 11.6.9 1.6 2.3.5 1.6-.3a7.4 7.4 0 0 1-1.8-3.4c-.1-1.6.8-.9 1.1-.9.4.1.7-.3.4-.8-1.1-2.5 2.5-4.3 3.2-3.7.7.6-1.4.5-1.9 2.9-.4 1.8 1.3 3.8 1.2 5.6 0 1.4-1.3 1.8-1.7 2.2-.5.5-.2 1.2.6 1.9 1.4 1.1 2.2 1.8 4.3 1.9.6 0 1.3-.5 1.5-.6.3-.2.2-.1.5.3.7 1.4 2.1 3.8.6 4.4m11.5-9.4c-.3-.6-1-1.6-2.2-1.8-.5-.1-.9.4-.6 1 1.4 3.1-.2 8-5.6 11.2-1.2.8-2.5.1-1.3-1.1 1.4-1.4-2-3.2-.7-8.2.3-1.2-.8-2.1-2.1-.7-3.8 4.2-4.4-7.4-.4-9.3 1.2-.5 2.8 1 1.4 2.1a4.7 4.7 0 0 0-1.9 3.5c-.1 1.1.8 1.1.9.5.2-2.2 2.4-4.8 3.7-2.7 2.2 3.4.7 10 1.2 10.2.5.2.6-.9.7-1.8.1-.8.3-.4.5-.5 1.1-.4 2.5-3 1-8.1-.6-2.2 2.3-1.6 3.5.7.7 1.4 2.1.6 1-.6a9.7 9.7 0 0 0-5.7-3.5c-1.8-.4-1.6-3.5.8-2.7 3.8 1.3 7.7 6.3 8.4 9.5.4 2-1.5 4.3-2.6 2.3m-35.4-7.4c.4-.2 0-.5-.2-.5-.3.1 0 .6.2.5m27.6 13.1c-.6.2-.1 1 .4.9.6-.2.4-1.2-.4-.9m7.5-9.8c-.4.2-.1.8.3.7.5-.3.2-1-.3-.7m.6 1.4c-.2.1-.1.5.2.4.3-.1.2-.5-.2-.4m-13.6.7c-.6.3-.1 1.2.4 1 .9-.2.2-1.4-.4-1m4.9 9.1c-.5.2 0 .9.3.8.6-.2.3-1.1-.3-.8m-29.7-3.4c-.6.3-.2.9.3.7.6-.3.2-1-.3-.7m19.6-5.7c-.1-.2-.6-.3-.4-.8.4-.8-.8-.8-.5-.1l.2.4c.1 1.8.9 1.3.7.5m-23.6-.8c-.3.2-.2.4-.6.1-1-.9-1.1 1-.1.6.3-.1.4-.5.8-.3 1.2.6.8-1.3-.1-.4m23.2 2.1c-.4.1-.1.6.2.5.3-.1 0-.5-.2-.5m-15.4 17.1a89.8 89.8 0 0 0-9.7-10.1 27 27 0 0 0-23.3-3.6 12.8 12.8 0 0 0-8.3 10.6c-.7 4.5 2.3 11.3 8.7 12.4 2.2.3 4.1.1 5.7-.6l1.5-.5c.3-.1.8 0 .6.4-.2.4-.5.5-.4 1 .1.5.7.9 1.2.8.5-.1 1.7-.6 2.5.2.1-.5-.1-1-.3-1.4 1.1.6.8-.9 3.6 1.5-1.6-2.7-4.5-3.2-7.1-2.7a10 10 0 0 0 4.1-6.7c.4-2.7-.5-5.8-2.5-7.8a7.4 7.4 0 0 0-6.5-2.2c-.2 0-.3.2-.2.3 0 .2.2.3.3.2 2.3-.3 4.4.4 6 2.1a8.7 8.7 0 0 1 2.3 7.3c-.8 4.5-4.7 8.7-10.7 7.7-6.1-1-8.9-7.6-8.3-11.8.8-5 3.5-8.4 8-10.2a27.1 27.1 0 0 1 19.2 1.4c.4.2.5.4.5.6-.1.2-.4.1-.8 0-3.6-.9-9.5-1.1-11.9-.6 2.8.1 3.6 1.2 4.7 2.1 1.1.9 1.7 1.5 4.1 1.1-2.4-1-.5-3.1 1.8-2.5 2.3.6 5.8 1.9 7.7 3.7l1.6 1.5c.1.2.4.5.2.6-.2.2-.6-.1-.8-.2-3.2-1.5-6.9-.6-9.3.4-2.4 1.1-4 3.6-4.1 4.7-.2 1.1.4 2.2 1.9 2.7-2.2-1-1.4-3.5-.5-4 .5-.3 1.5-.1 1.7.8.2 1-.4 1.4-1.4 1.8.6.4 1.7.5 3.6-2.8 1.9-3.3 4.3-3.7 6.6-3.4 2.2.4 4.1 1.5 4.8 2.3l2.5 2.8c.3.5-.4.5-.6.3a7.4 7.4 0 0 0-6.3-.4c-2.1.7-3.2 3.5-3.9 5.6-.6 2.1-2.1 3-3.1 2.8-1.1-.2-1.2-.6-1.2-1.1.1-.5.6-1.1 1.7-1-1.1-.9-2.4-.2-2.5.8-.2.9.8 1.6 1.8 1.8.9.2 3-.4 4.2-3.2 1.2-2.9 3.5-3.2 4.3-3 .8.1 1.6.6 1.4 1.9-.2 1-.8 1.1-1.4 1.2-.4.1-1.1-.1-1.9-.6.5 1.2 2.2 1.8 3.1 1.9.9.2 3.4-.1 3.8-2.7.4-2.6-1.2-3.2-1.5-3.2-.3-.1-.4-.5.1-.6.4-.1 1 .1 1.2.2.6.3 1.1.7 1.5.5.6-.3 0-1.1 0-1.1"/>
  <path class="st1" d="M105.5 50.3c-.6-.4-1.4-.5-2.2-.4-1.1.1-2.1.6-2.7 1.4v.1c-.9 1.2-.5 2.9.9 3.7a2 2 0 0 0 2-.1c.8-.5 1-1.6.4-2.3l-.2-.1-.5-.2h-.3l-.1-.1v-.1l.2-.2c1-.4 2.6.4 2.5 1.9-.1 1.6-1.5 3-3.5 3.1a3 3 0 0 1-1.9-.4c-2.8-1.4-3.8-4.4-2.4-6.9a5 5 0 0 1 1.9-1.9c1.5-1 3.9-1.4 4.8-.8l.3.3c.1.2.1.5-.1.7-.1.2-.3.1-.3-.1v-.1c-.1-.3-.6-.3-.9-.1-.3.2-.3.6-.1.9.3.4 1.2.4 1.8.1.6-.4.6-1.3.3-1.8-.2-.3-.5-.5-.9-.6-2-.8-5.6.5-7.4 2.5a16 16 0 0 0-1.5 2.1c-1.2 2.1-1.8 3.8-3.2 4.4-1.4.6-2.8.1-2.8-1v-.2c0-.4.3-.9.5-.3.2.3.5.3.9.1.2-.2.2-.5-.2-.8-.4-.3-1.2-.1-1.5.5-.2.3-.2.7-.2 1 .2 1.4 1.7 1.8 3.2 1.7.2 0 .3.1.2.2l-.1.3c-1.7.4-3.2-.3-4.5-1.2-4.2-2.9-6.6-3.5-8-3.5-1.7 0-3.5.7-4.5 2.2-.8 1-2.5 1.4-3.9 1.2-1.2-.2-2.2-1.1-2.2-2.4 0-.8.5-1.4 1.3-1.5.4 0 .9.3.9.5 0 .4-.3.4-.5.3h-.5c-.3.1-.5.5-.4.8.1.3.3.4.6.4.5.1 1.4-.2 1.7-1.1.2-.8-.5-1.5-1.5-1.5-.7 0-1.5.3-1.9 1l-.2.3c-.8 1.8.5 3.8 2.7 4.3a5 5 0 0 0 4.2-.9c-.1.4 0 .5.1.9.3 1.2 1.2 2 2.2 2.2 1.7.4 3.8-.9 3.4-3-.1-.5-.4-1-.9-1.2-1.6-1-2.9.6-2.8 1.6l.3.6c.3.2.8.3 1.1 0 .3-.3.5-.8.2-1l.2-.2c.5-.4 1.1-.2 1.1.4 0 .4-.2.9-.6 1.2-.6.6-1.5.6-2.1.1-.9-.8-1-1.7-.5-2.5.9-1.4 2.4-1.7 3.9-1.4.9.2 2.4.7 4.9 2.3 2.3 1.4 4.2 2.8 6.7 2.2.1.1.2 0 .3-.1h.1c.4-.1.8-.3 1-.6l.1-.2c1.1-.8 1.8-2.1 1.8-3.1.1-1.4.4-.2.4 0a6.6 6.6 0 0 0 4.4 4.9c1.4.4 2.9.2 4.1-.4 3.8-2 3.2-6.6.4-8.1m111-4.1a13 13 0 0 0-8.3-10.6 27 27 0 0 0-23.3 3.6 113 113 0 0 0-9.7 10.1s-.6.8.2 1c.4.2.9-.2 1.5-.5.3-.2.8-.3 1.2-.2.4.1.3.6.1.6-.3.1-1.9.6-1.5 3.2.4 2.6 2.9 2.8 3.8 2.7.9-.2 2.7-.8 3.1-1.9-.8.5-1.5.6-1.9.6-.6-.1-1.2-.2-1.4-1.2-.2-1.3.6-1.7 1.4-1.9.8-.1 3.1.2 4.3 3 1.2 2.9 3.3 3.4 4.2 3.2 1-.2 1.9-.9 1.8-1.8-.2-.9-1.5-1.6-2.5-.8 1.1-.2 1.6.5 1.7 1 .1.5-.1.9-1.2 1.1-1.1.2-2.5-.7-3.1-2.8-.6-2.1-1.8-4.9-3.9-5.6a7.4 7.4 0 0 0-6.3.4c-.3.2-.9.2-.6-.3l2.5-2.8c.6-.8 2.5-1.9 4.8-2.3 2.2-.4 4.6.1 6.6 3.4 1.9 3.3 3 3.2 3.6 2.8-.9-.4-1.5-.8-1.4-1.8.2-.9 1.1-1.1 1.7-.8.8.4 1.7 2.9-.5 4 1.5-.5 2.1-1.6 1.9-2.7a8 8 0 0 0-4.1-4.7c-2.4-1.1-6.1-1.9-9.3-.4-.2.1-.6.4-.8.2-.1-.2.1-.5.2-.6l1.6-1.5c1.9-1.7 5.4-3.1 7.7-3.7s4.2 1.5 1.8 2.5c2.4.4 3-.3 4.1-1.1 1.1-.9 1.9-2 4.7-2.1-2.3-.4-8.3-.3-11.9.6-.4.1-.8.2-.8 0-.1-.2.1-.4.5-.6a27.1 27.1 0 0 1 19.2-1.4c4.5 1.7 7.2 5.1 8 10.2.6 4.2-2.2 10.8-8.3 11.8-6 1-9.9-3.1-10.7-7.7-.4-2.6.5-5.5 2.3-7.3a7 7 0 0 1 6-2.1c.2 0 .3-.1.3-.2 0-.2-.1-.3-.2-.3-2.4-.3-4.8.4-6.5 2.2-1.9 2-2.9 5-2.5 7.8.4 2.7 1.9 5.1 4.1 6.7-2.6-.6-5.5.1-7.1 2.7 2.8-2.4 2.4-.9 3.6-1.5-.3.4-.4.9-.3 1.4.9-.8 2.1-.2 2.5-.2.5.1 1.1-.3 1.2-.8.1-.5-.3-.6-.4-1-.2-.4.3-.4.6-.4l1.5.5c1.6.7 3.5 1 5.7.6 6.2-1 9.2-7.9 8.5-12.3"/>
  <path class="st1" d="M254.7 52.3l-.2-.3a2 2 0 0 0-1.9-1c-.9 0-1.7.8-1.5 1.5.3.9 1.2 1.1 1.7 1.1.3-.1.5-.2.6-.4a.7.7 0 0 0-.4-.8c-.2-.1-.4-.1-.5.1-.3.2-.5.1-.5-.3 0-.2.4-.6.9-.5.8.1 1.3.7 1.3 1.5 0 1.4-.9 2.3-2.2 2.4-1.4.2-3.1-.1-3.9-1.2a5.5 5.5 0 0 0-4.5-2.2c-1.4 0-3.7.5-8 3.5-1.2.9-2.8 1.6-4.5 1.2l-.1-.3c-.1-.2.1-.2.2-.2 1.5.1 3-.3 3.2-1.7.1-.3 0-.8-.2-1-.3-.7-1.1-.8-1.5-.5-.4.2-.4.5-.2.8.3.3.7.3.9-.1.3-.5.5-.1.5.3v.2c0 1.1-1.4 1.7-2.8 1-1.5-.7-2.1-2.4-3.2-4.4-.4-.8-1-1.5-1.5-2.1-1.7-2-5.4-3.2-7.4-2.5l-.9.6c-.3.5-.4 1.4.3 1.8.6.4 1.5.4 1.8-.1.2-.3.3-.7-.1-.9s-.8-.1-.9.1v.1c-.1.2-.2.2-.3.1-.1-.2-.2-.5-.1-.7l.3-.3c.9-.6 3.3-.2 4.8.8.8.5 1.5 1.2 1.9 1.9 1.5 2.5.4 5.5-2.4 6.9a4 4 0 0 1-1.9.4c-1.9-.1-3.4-1.4-3.5-3.1-.1-1.5 1.5-2.4 2.5-1.9l.1.1v.1l-.1.1h-.4l-.5.2-.2.1c-.6.7-.4 1.7.4 2.3a2 2 0 0 0 2 .1c1.5-.8 1.8-2.4.9-3.7A3.2 3.2 0 0 0 220 50c-.8-.1-1.5.1-2.2.4-2.7 1.6-3.4 6.1.8 8.2 1.2.6 2.7.8 4.1.4 1.9-.5 4-2.6 4.4-4.9 0-.2.3-1.4.4 0a5 5 0 0 0 1.8 3.1l.1.2c.3.3.6.5 1 .6h.1c.1.1.2.2.3.1 2.5.6 4.4-.8 6.7-2.2 2.5-1.6 4-2.1 4.9-2.3 1.5-.3 3 .1 3.9 1.4.5.8.4 1.8-.5 2.5-.6.5-1.4.4-2.1-.1-.4-.3-.6-.8-.6-1.2 0-.6.5-.8 1.1-.4l.2.2c-.3.3-.1.8.2 1 .3.3.8.2 1.1 0l.3-.6c.1-1-1.2-2.6-2.8-1.6-.4.3-.8.7-.9 1.2-.4 2.1 1.6 3.4 3.4 3a3 3 0 0 0 2.2-2.2l.1-.9a5 5 0 0 0 4.2.9c2-.7 3.3-2.7 2.5-4.5"/>
  <path d="M45.7 108.6h-2.5V71.8H31.3v-2.5h26.2v2.5H45.7zm47.1-.2h-2.4V90h-21v18.4h-2.5V69h2.5v18.5h21V69h2.4zm25.6-18.3h-11.9v15.7h16.4v2.5H104v-39h18.9v2.4h-16.4v15.9h11.9zm55.4 18.3h-2.4V90h-21v18.4H148V69h2.4v18.5h21V69h2.4zm25.1-.1a13.5 13.5 0 0 1-13-10.1c-1-5.1-1-13.6 0-18.7a12 12 0 0 1 4.7-7.2c2.4-1.9 5.4-2.9 8.3-2.9h1.9c2.9 0 6 1 8.4 2.9 2.4 1.9 4.1 4.5 4.6 7.2 1 5.1 1 13.6 0 18.7-.5 2.7-2.2 5.3-4.6 7.2a13.8 13.8 0 0 1-8.4 2.9h-1.9zm0-36.6c-4.9 0-9.7 3.7-10.6 8.1a59 59 0 0 0 0 17.8c.9 4.4 5.7 8.1 10.6 8.1h1.9c4.9 0 9.7-3.7 10.6-8.1 1-4.9 1-12.9 0-17.8-.9-4.4-5.7-8.1-10.6-8.1h-1.9zm58.2-2.4v39.2h-2.5V73.3l-12.5 19.6-12.4-19.6v35.2h-2.5V69.3h2.9l12 19 12.2-19zm27 20.8h-12v15.7h16.4v2.5h-18.9v-39h18.9v2.4h-16.4v15.9h12z" fill="#4a3729"/>
</svg>
