<svg xmlns="http://www.w3.org/2000/svg" width="169" height="79.177" viewBox="-9.05 -0.807 169 79.177"><g fill="#FFF"><path d="M148.228-.807h-7.466l-19.937 49.86 3.726 9.331zm-70.795 0V78.37h6.921V16.516l24.742 61.854h7.465L84.893-.807z"/><path d="M88.316 78.37h6.928V54.395l-6.928-17.327zm53.822 0h6.925V37.068l-6.925 17.327zM34.342-.807l19.79 49.486H22.009l8.07-20.172-3.731-9.329L2.676 78.37h7.463l9.1-22.761h37.665l9.107 22.761h7.457L41.805-.807z"/><path d="M54.225 59.564H21.921l-2.77 6.93h30.384l4.75 11.876h7.463l-7.523-18.801z"/><path d="M40.826 44.721h7.462L30.079-.807h-7.464l-29.059 72.66-2.576 6.44-.03.077h7.463L26.348 8.521zM159.95-.807h-7.461l-27.938 69.849L96.614-.807h-7.462l31.669 79.177h7.461l24.738-61.854V78.37h6.93v-.002z"/></g></svg>